<svg xmlns="http://www.w3.org/2000/svg" viewBox="0 0 64 64">
  <!-- Background -->
  <rect width="64" height="64" rx="12" fill="#ffffff"></rect>

  <!-- Outside rays -->
  <line x1="32" y1="4" x2="32" y2="10" stroke="#1534e4" stroke-width="4"></line>
  <line x1="32" y1="54" x2="32" y2="60" stroke="#1534e4" stroke-width="4"></line>
  <line x1="4" y1="32" x2="10" y2="32" stroke="#1534e4" stroke-width="4"></line>
  <line x1="54" y1="32" x2="60" y2="32" stroke="#1534e4" stroke-width="4"></line>

  <line x1="10" y1="10" x2="14" y2="14" stroke="#1534e4" stroke-width="4"></line>
  <line x1="50" y1="50" x2="54" y2="54" stroke="#1534e4" stroke-width="4"></line>
  <line x1="10" y1="54" x2="14" y2="50" stroke="#1534e4" stroke-width="4"></line>
  <line x1="50" y1="14" x2="54" y2="10" stroke="#1534e4" stroke-width="4"></line>

  <!-- Bulb -->
  <path d="M32 10
       C22 10 16 18 16 26
       C16 33 21 37 24 41
       L24 46
       H40
       L40 41
       C43 37 48 33 48 26
       C48 18 42 10 32 10Z" fill="none" stroke="#1534e4" stroke-width="4" stroke-linecap="round" stroke-linejoin="round"></path>

  <!-- Filament / AI -->
  <text x="32" y="34" text-anchor="middle" font-size="14" font-weight="900" fill="#1534e4" font-family="Arial, sans-serif">
    AI
  </text>

  <!-- Bulb base -->
  <line x1="26" y1="48" x2="38" y2="48" stroke="#1534e4" stroke-width="4"></line>
  <line x1="28" y1="54" x2="36" y2="54" stroke="#1534e4" stroke-width="4"></line>
</svg>
